<?xml version="1.0" encoding="UTF-8" standalone="no"?>
<svg
   xmlns:dc="http://purl.org/dc/elements/1.1/"
   xmlns:cc="http://creativecommons.org/ns#"
   xmlns:rdf="http://www.w3.org/1999/02/22-rdf-syntax-ns#"
   xmlns:svg="http://www.w3.org/2000/svg"
   xmlns="http://www.w3.org/2000/svg"
   xmlns:sodipodi="http://sodipodi.sourceforge.net/DTD/sodipodi-0.dtd"
   xmlns:inkscape="http://www.inkscape.org/namespaces/inkscape"
   version="1.0"
   width="583.05713pt"
   height="234.06473pt"
   viewBox="0 0 583.05713 234.06473"
   preserveAspectRatio="xMidYMid meet"
   id="svg28"
   sodipodi:docname="PG-SCUnK_logo.svg"
   inkscape:version="1.0.1 (c497b03c, 2020-09-10)">
  <metadata
     id="metadata34">
    <rdf:RDF>
      <cc:Work
         rdf:about="">
        <dc:format>image/svg+xml</dc:format>
        <dc:type
           rdf:resource="http://purl.org/dc/dcmitype/StillImage" />
        <dc:title></dc:title>
      </cc:Work>
    </rdf:RDF>
  </metadata>
  <defs
     id="defs32" />
  <sodipodi:namedview
     pagecolor="#ffffff"
     bordercolor="#666666"
     borderopacity="1"
     objecttolerance="10"
     gridtolerance="10"
     guidetolerance="10"
     inkscape:pageopacity="0"
     inkscape:pageshadow="2"
     inkscape:window-width="1528"
     inkscape:window-height="979"
     id="namedview30"
     showgrid="false"
     inkscape:zoom="0.77084679"
     inkscape:cx="363.53792"
     inkscape:cy="222.38141"
     inkscape:window-x="0"
     inkscape:window-y="25"
     inkscape:window-maximized="0"
     inkscape:current-layer="svg28"
     fit-margin-top="0"
     fit-margin-left="0"
     fit-margin-right="0"
     fit-margin-bottom="0" />
  <rect
     style="fill:#ffffff;stroke-width:2.62403;stroke-linecap:round"
     id="rect94"
     width="583.05713"
     height="234.06473"
     x="0"
     y="1.4210855e-14" />
  <g
     id="g109"
     transform="translate(13.877851,117.31003)">
    <g
       transform="matrix(0.1,0,0,-0.11760111,0,108.83349)"
       fill="#000000"
       stroke="none"
       id="g26">
      <path
         d="M 1074,886 C 927,852 815,767 757,643 731,586 725,560 722,482 713,286 800,142 979,57 c 76,-36 178,-46 273,-27 45,8 63,9 66,1 2,-7 44,-11 118,-11 h 114 v 265 265 h -154 -155 l -11,-57 c -6,-32 -16,-74 -21,-93 -17,-65 -14,-69 44,-72 l 52,-3 -48,-29 c -129,-77 -287,7 -287,153 0,46 24,118 48,144 51,57 158,80 246,52 31,-10 58,-16 59,-14 2,2 38,43 81,91 l 78,87 -34,21 c -99,60 -253,83 -374,56 z"
         id="path10" />
      <path
         d="m 2303,884 c -239,-74 -225,-383 22,-500 28,-13 58,-24 67,-24 18,0 78,-46 78,-60 0,-17 -32,-40 -56,-40 -13,0 -72,17 -129,39 -104,38 -105,38 -111,17 -28,-115 -51,-232 -46,-237 4,-4 36,-16 72,-29 91,-31 246,-38 324,-16 132,39 207,122 222,246 8,70 -7,125 -50,181 -39,51 -98,86 -213,123 -85,28 -108,50 -77,73 26,19 89,16 173,-7 40,-12 76,-18 80,-15 3,4 8,57 9,119 l 4,112 -38,13 c -63,21 -269,24 -331,5 z"
         id="path12" />
      <path
         d="m 3110,890 c -246,-59 -396,-298 -335,-533 22,-86 51,-135 119,-202 160,-159 403,-179 593,-48 59,41 101,90 87,102 -5,5 -52,38 -104,74 l -96,65 -24,-25 c -49,-51 -144,-69 -213,-39 -39,17 -92,71 -106,109 -24,62 -8,142 38,195 27,31 99,62 146,62 41,0 117,-29 129,-49 12,-19 24,-13 113,66 49,42 90,78 92,80 11,8 -56,64 -108,92 -103,55 -232,74 -331,51 z"
         id="path14" />
      <path
         d="M 50,460 V 30 h 125 125 v 89 c 0,87 0,88 23,84 34,-7 134,14 183,38 64,30 122,93 157,167 26,57 31,78 31,147 0,102 -26,166 -95,230 -89,84 -168,105 -386,105 H 50 Z m 343,159 c 26,-12 47,-47 47,-78 0,-10 -11,-30 -25,-45 -19,-21 -33,-26 -70,-26 h -45 v 80 80 h 35 c 19,0 45,-5 58,-11 z"
         id="path16" />
      <path
         d="m 3582,578 c 3,-357 5,-362 92,-456 145,-154 393,-134 510,42 19,28 39,69 45,91 7,25 11,151 11,338 v 297 h -125 -124 l -3,-286 -3,-286 -24,-19 c -32,-26 -73,-24 -99,4 -22,23 -22,30 -22,305 v 282 h -131 -131 z"
         id="path18" />
      <path
         d="M 4830,460 V 30 h 125 125 v 148 l 1,147 77,-147 77,-148 h 143 144 l -112,215 -111,215 111,215 112,215 h -144 -143 l -75,-145 -75,-145 -3,145 -3,145 h -124 -125 z"
         id="path20" />
      <path
         d="M 4280,370 V 30 h 100 100 v 98 97 l 56,-98 55,-97 h 100 99 v 340 340 h -105 -105 l -1,-102 -1,-103 -50,103 -49,102 h -100 -99 z"
         id="path22" />
      <path
         d="m 1594,537 c -3,-8 -4,-47 -2,-88 l 3,-74 243,-3 242,-2 v 90 90 h -240 c -192,0 -242,-3 -246,-13 z"
         id="path24" />
    </g>
    <g
       transform="matrix(0.11856002,0,0,-0.10000001,-6.0934336,61.658178)"
       fill="#000000"
       stroke="none"
       id="g42">
      <path
         d="m 2050,1660 c -264,-41 -560,-156 -788,-308 -93,-61 -275,-230 -306,-282 l -19,-33 44,27 c 87,55 213,107 313,131 135,33 297,35 389,4 108,-36 137,-87 75,-130 -63,-43 -118,-103 -128,-140 -18,-66 23,-129 114,-176 43,-22 48,-23 41,-6 -25,59 -27,72 -21,96 6,27 37,53 140,116 113,70 196,172 196,240 0,17 -11,42 -26,60 -19,22 -22,31 -11,31 24,0 77,-68 77,-99 v -28 l 116,-6 c 64,-4 119,-8 121,-11 3,-2 -2,-17 -11,-33 -8,-17 -20,-70 -27,-119 -15,-114 -29,-141 -87,-166 -41,-19 -53,-20 -106,-10 -33,6 -62,10 -64,7 -3,-2 11,-20 30,-39 55,-55 132,-69 226,-41 67,20 115,68 137,137 27,82 60,141 92,164 81,60 235,113 393,135 131,18 387,6 535,-26 152,-33 195,-39 238,-31 36,7 100,51 125,87 12,18 11,22 -13,41 -15,12 -43,39 -63,61 -82,88 -193,137 -361,157 -149,17 -292,48 -429,91 -292,91 -454,119 -678,118 -89,0 -195,-8 -264,-19 z m 610,-39 c 89,-20 221,-57 420,-116 47,-15 159,-37 250,-51 91,-14 176,-27 190,-30 56,-13 120,-36 120,-45 0,-18 -158,-10 -236,13 l -76,23 -22,-27 c -14,-18 -28,-26 -41,-23 -100,22 -514,121 -605,144 -177,45 -262,54 -443,48 -178,-5 -294,-26 -513,-92 -196,-60 -402,-150 -526,-232 -59,-40 -54,-23 10,29 200,162 528,307 817,362 127,24 130,24 350,21 168,-3 229,-7 305,-24 z"
         id="path36" />
      <path
         d="M 1435,1172 C 1276,1117 1150,986 1150,876 v -41 l 18,30 c 53,86 188,158 396,210 76,19 141,37 144,40 9,9 -32,47 -65,61 -44,19 -148,17 -208,-4 z"
         id="path38" />
      <path
         d="m 3000,1153 c -83,-13 -186,-36 -193,-42 -4,-4 36,-22 91,-39 167,-53 267,-116 303,-190 17,-35 19,-47 10,-74 -14,-39 -14,-38 2,-38 24,0 96,58 113,92 23,44 21,99 -5,141 -27,44 -110,100 -196,132 -64,25 -75,26 -125,18 z"
         id="path40" />
    </g>
  </g>
</svg>
